<?xml version="1.0" encoding="UTF-8"?>
<svg width="41px" height="41px" viewBox="0 0 41 41" version="1.1" xmlns="http://www.w3.org/2000/svg" xmlns:xlink="http://www.w3.org/1999/xlink">
    <g id="Startseite" stroke="none" stroke-width="1" fill="none" fill-rule="evenodd">
        <g id="Startseite_juelich_intranet_ticker-active_v2" transform="translate(-394.000000, -512.000000)">
            <g id="Group-17" transform="translate(354.000000, 377.000000)">
                <g id="Group-3" transform="translate(40.000000, 135.000000)">
                    <mask id="mask-2" fill="white">
                        <use xlink:href="#path-1"></use>
                    </mask>
                    <g id="Clip-2"></g>
                    <path d="M20.5,20.5 C15.7312676,20.5 11.8515625,16.620375 11.8515625,11.8515625 C11.8515625,7.08275 15.7312676,3.203125 20.5,3.203125 C25.2687324,3.203125 29.1484375,7.08275 29.1484375,11.8515625 C29.1484375,16.620375 25.2687324,20.5 20.5,20.5 M34.9957422,26.5042578 C32.7629238,24.2715195 30.105291,22.618707 27.2056621,21.6180508 C30.311252,19.479084 32.3515625,15.8993516 32.3515625,11.8515625 C32.3515625,5.31662695 27.0349355,0 20.5,0 C13.9650645,0 8.6484375,5.31662695 8.6484375,11.8515625 C8.6484375,15.8993516 10.688748,19.479084 13.794418,21.6180508 C10.8947891,22.618707 8.23715625,24.2715195 6.00433789,26.5042578 C2.13240039,30.3762754 0,35.5243379 0,41 L3.203125,41 C3.203125,31.4624551 10.9624551,23.703125 20.5,23.703125 C30.0375449,23.703125 37.796875,31.4624551 37.796875,41 L41,41 C41,35.5243379 38.8675996,30.3762754 34.9957422,26.5042578" id="Fill-1" fill="currentcolor"></path>
                </g>
            </g>
        </g>
    </g>
</svg>
