<?xml version="1.0" encoding="UTF-8"?>
<svg width="34px" height="34px" viewBox="0 0 34 34" version="1.1" xmlns="http://www.w3.org/2000/svg"
    xmlns:xlink="http://www.w3.org/1999/xlink">
    <title>Fill 66 Copy 2</title>
    <g id="Startseite" stroke="none" stroke-width="1" fill="none" fill-rule="evenodd">
        <g id="Startseite_juelich_intranet_ticker-active"
            transform="translate(-264.000000, -853.000000)" fill="#004176" stroke="#004176">
            <path
                d="M296.723489,884.367819 L288.945107,876.591285 C291.032045,874.193737 292.294806,871.063511 292.294806,867.644722 C292.294806,860.116172 286.170415,854 278.646839,854 C271.117626,854 265,860.122935 265,867.644722 C265,875.165381 271.124391,881.288316 278.646839,881.288316 C282.067569,881.288316 285.197412,880.025855 287.596658,877.939413 L295.375041,885.715946 C295.559945,885.900807 295.807987,886 296.049265,886 C296.290543,886 296.538585,885.90757 296.723489,885.715946 C297.09217,885.347353 297.09217,884.736412 296.723489,884.367819 M267,867.497238 C267,861.154201 272.161461,856 278.5,856 C284.845171,856 290,861.16083 290,867.497238 C290,873.832541 284.845171,879 278.5,879 C272.161461,879 267,873.83917 267,867.497238"
                id="Fill-66-Copy-2"
                transform="translate(281.000000, 870.000000) scale(-1, 1) translate(-281.000000, -870.000000) "></path>
        </g>
    </g>
</svg>
