<?xml version="1.0" encoding="UTF-8"?>
<svg width="75px" height="76px" viewBox="0 0 75 76" version="1.1" xmlns="http://www.w3.org/2000/svg"
    xmlns:xlink="http://www.w3.org/1999/xlink">
    <title>Group 13 Copy 2</title>
    <defs>
        <polygon id="path-1" points="0 0 46 0 46 45 0 45"></polygon>
    </defs>
    <g id="Startseite" stroke="none" stroke-width="1" fill="none" fill-rule="evenodd">
        <g id="Startseite_juelich_intranet_v4" transform="translate(-474.000000, -4557.000000)">
            <g id="Group-13-Copy-2" transform="translate(474.000000, 4557.000000)">
                <ellipse id="Oval" fill="#e9eaeb" cx="37.5" cy="37.9411765" rx="37.5"
                    ry="37.9411765"></ellipse>
                <g id="Group-3" transform="translate(15.000000, 15.000000)">
                    <mask id="mask-2" fill="white">
                        <use xlink:href="#path-1"></use>
                    </mask>
                    <g id="Clip-2"></g>
                    <path
                        d="M23,22.5 C17.6497148,22.5 13.296875,18.241875 13.296875,13.0078125 C13.296875,7.77375 17.6497148,3.515625 23,3.515625 C28.3502852,3.515625 32.703125,7.77375 32.703125,13.0078125 C32.703125,18.241875 28.3502852,22.5 23,22.5 M39.2635156,29.0900391 C36.7584023,26.6394727 33.776668,24.8254102 30.5234258,23.7271289 C34.0077461,21.3794824 36.296875,17.4505078 36.296875,13.0078125 C36.296875,5.83532227 30.3318789,0 23,0 C15.6681211,0 9.703125,5.83532227 9.703125,13.0078125 C9.703125,17.4505078 11.9922539,21.3794824 15.4766641,23.7271289 C12.2234219,24.8254102 9.2416875,26.6394727 6.73657422,29.0900391 C2.39244922,33.3398145 0,38.990127 0,45 L3.59375,45 C3.59375,34.5319629 12.2993398,26.015625 23,26.015625 C33.7006602,26.015625 42.40625,34.5319629 42.40625,45 L46,45 C46,38.990127 43.6075508,33.3398145 39.2635156,29.0900391"
                        id="Fill-1" fill="#FFFFFF"></path>
                </g>
            </g>
        </g>
    </g>
</svg>
