<?xml version="1.0" encoding="UTF-8"?>
<svg width="17px" height="24px" viewBox="0 0 17 24" version="1.1" xmlns="http://www.w3.org/2000/svg" xmlns:xlink="http://www.w3.org/1999/xlink">
    <title>Group 10 Copy 2</title>
    <g id="Personenprofil" stroke="none" stroke-width="1" fill="none" fill-rule="evenodd">
        <g id="personenprofil-und-footer-institut_v2" transform="translate(-886.000000, -952.000000)" fill="#005589">
            <g id="Group-10-Copy-2" transform="translate(886.000075, 951.999800)">
                <path d="M8.12192523,0 C12.4669252,0 14.4629252,2.263 15.2669252,3.613 C16.4579252,5.612 16.5619252,8.13 15.5339252,10.028 C10.3699252,19.571 8.70992523,22.701 8.69592523,22.726 L8.09292523,23.865 L7.53492523,22.703 C7.53328668,22.6995783 7.52968557,22.6921479 7.52365327,22.6798936 L7.47851562,22.5894368 C7.21607402,22.0682143 5.90975656,19.5330723 0.710925231,10.029 C-0.321074769,8.143 -0.223074769,5.631 0.962925231,3.631 C1.76692523,2.275 3.76692523,0 8.12192523,0 Z M8.12192523,1.3 C5.37092523,1.3 3.22592523,2.363 2.08092523,4.294 C1.12492523,5.907 1.03492523,7.914 1.85092523,9.405 C5.72192523,16.48 7.42192523,19.668 8.13192523,21.022 C8.86692523,19.647 10.7399252,16.155 14.3919252,9.409 C15.2049252,7.905 15.1099252,5.891 14.1489252,4.278 C13.0059252,2.358 10.8649252,1.3 8.12192523,1.3 Z M8.12192523,4.4726 C9.82792523,4.4726 11.2159252,5.8606 11.2159252,7.5656 C11.2159252,9.2716 9.82792523,10.6586 8.12192523,10.6586 C6.41692523,10.6586 5.02892523,9.2716 5.02892523,7.5656 C5.02892523,5.8606 6.41692523,4.4726 8.12192523,4.4726 Z M8.12192523,5.7726 C7.13392523,5.7726 6.32992523,6.5776 6.32992523,7.5656 C6.32992523,8.5546 7.13392523,9.3586 8.12192523,9.3586 C9.11092523,9.3586 9.91492523,8.5546 9.91492523,7.5656 C9.91492523,6.5776 9.11092523,5.7726 8.12192523,5.7726 Z" id="Combined-Shape"></path>
            </g>
        </g>
    </g>
</svg>