<?xml version="1.0" encoding="UTF-8"?>
<svg width="21px" height="20px" viewBox="0 0 21 20" version="1.1" xmlns="http://www.w3.org/2000/svg" xmlns:xlink="http://www.w3.org/1999/xlink">
    <title>Fill 1 Copy</title>
    <g id="10.-Neue-Tasks" stroke="none" stroke-width="1">
      <g id="FZJ-Task-2_opt2" transform="translate(-795.000000, -599.000000)">
            <path d="M796.403,604.735 C796.69,605.742 797.946,609.37 801.896,612.829 C805.845,616.286 809.498,617.334 810.533,617.575 C811.049,617.117 812.33,615.971 813.867,614.549 L809.9,612.174 L807.952,613.688 L807.603,613.544 C807.501,613.502 805.07,612.494 803.51,611.136 C801.94,609.769 800.713,607.435 800.662,607.336 L800.485,606.997 L801.845,604.932 L799.166,601.163 C797.861,602.818 796.814,604.192 796.403,604.735 L796.403,604.735 Z M810.921,618.968 L810.618,618.92 C810.431,618.89 805.988,618.139 801.041,613.807 C796.068,609.453 795.097,604.914 795.058,604.723 L795,604.436 L795.175,604.202 C795.191,604.182 796.727,602.139 798.684,599.676 L799.221,599 L803.42,604.903 L801.997,607.065 C802.377,607.727 803.303,609.233 804.364,610.155 C805.442,611.093 807.058,611.877 807.757,612.193 L809.804,610.602 L816.019,614.323 L815.387,614.912 C813.086,617.056 811.17,618.749 811.15,618.765 L810.921,618.968 Z" id="Fill-1-Copy"></path>
        </g>
    </g>
</svg>
